<?xml version="1.0" standalone="no"?>
<!DOCTYPE svg PUBLIC "-//W3C//DTD SVG 20010904//EN"
 "http://www.w3.org/TR/2001/REC-SVG-20010904/DTD/svg10.dtd">
<svg version="1.0" xmlns="http://www.w3.org/2000/svg"
 width="349.000000pt" height="349.000000pt" viewBox="0 0 349.000000 349.000000"
 preserveAspectRatio="xMidYMid meet">
<metadata>
Created by potrace 1.14, written by Peter Selinger 2001-2017
</metadata>
<g transform="translate(0.000000,349.000000) scale(0.100000,-0.100000)"
fill="#000000" stroke="none">
<path d="M1500 3374 c0 -6 -40 -19 -91 -28 -309 -57 -621 -225 -854 -461 -463
-468 -600 -1159 -352 -1775 36 -90 100 -214 123 -241 8 -8 14 -20 14 -26 0 -6
3 -13 8 -15 4 -2 19 -21 34 -43 45 -68 60 -85 184 -209 268 -269 516 -397 904
-465 371 -66 832 32 1145 242 318 214 547 507 663 852 52 155 92 382 92 526 0
171 -59 461 -126 622 -50 118 -164 318 -224 390 -68 82 -164 180 -250 256 -29
26 -170 123 -245 168 -67 41 -251 118 -345 145 -171 49 -436 76 -580 60 -63
-8 -87 -7 -92 1 -6 9 -8 9 -8 1z m212 -473 c138 -48 241 -152 285 -291 15 -48
30 -240 19 -240 -4 0 -30 23 -58 51 -44 44 -52 59 -69 126 -33 133 -115 217
-244 249 -63 16 -72 16 -139 0 -117 -28 -200 -104 -239 -220 -15 -44 -17 -111
-17 -548 l0 -499 -47 -50 c-27 -27 -54 -49 -61 -49 -10 0 -12 108 -10 568 3
551 4 569 25 622 33 86 49 111 99 163 93 96 183 135 315 136 60 1 103 -5 141
-18z m488 -594 c0 -584 1 -576 -90 -667 -65 -64 -126 -90 -215 -90 -89 0 -150
26 -215 90 -55 55 -90 129 -90 191 0 22 93 129 112 129 4 0 8 -34 8 -75 0 -90
15 -129 63 -172 69 -60 152 -67 218 -18 19 14 41 28 49 31 8 3 23 32 33 64 15
53 17 115 17 594 l0 535 55 -58 55 -58 0 -496z m127 11 l-2 -593 -24 -49 c-29
-61 -33 -66 -102 -137 -165 -168 -443 -168 -609 1 -106 109 -122 146 -128 305
l-4 120 55 -54 c49 -47 56 -60 62 -105 14 -102 85 -197 183 -247 39 -20 62
-24 137 -24 80 0 96 3 144 28 65 34 114 84 150 152 l26 50 5 522 5 522 48 50
c27 28 51 51 53 51 2 0 3 -267 1 -592z m-620 440 c87 -44 157 -138 168 -226 6
-46 5 -48 -52 -107 l-58 -59 -5 89 c-6 109 -23 144 -88 185 -89 56 -196 31
-255 -59 l-27 -40 -2 -562 -3 -562 -58 55 -58 55 3 519 3 519 27 51 c32 60 81
110 141 141 61 32 201 32 264 1z m660 -1590 c25 -3 24 -5 -27 -56 -50 -49
-100 -82 -123 -82 -6 0 -7 15 -4 37 5 26 20 51 53 84 26 27 51 46 56 43 5 -3
8 -2 7 3 -1 4 0 13 1 18 2 6 5 -2 7 -17 3 -20 11 -28 30 -30z m-729 -211 c46
-42 52 -68 52 -209 0 -114 -3 -138 -20 -165 -56 -92 -177 -94 -237 -4 -21 31
-23 46 -23 161 0 72 5 142 12 161 12 35 46 69 82 81 37 12 108 -1 134 -25z
m366 6 c32 -24 56 -69 56 -104 0 -32 -14 -38 -28 -13 -8 14 -10 14 -21 0 -19
-22 -31 -20 -31 6 0 53 -74 79 -104 36 -9 -12 -16 -28 -16 -34 0 -20 49 -61
80 -67 16 -4 49 -26 74 -49 40 -39 45 -48 45 -88 -1 -60 -32 -105 -86 -126
-91 -35 -176 17 -189 116 -4 34 5 44 22 23 13 -17 15 -17 28 0 18 24 26 21 26
-8 0 -53 64 -83 102 -48 39 35 6 93 -61 108 -41 9 -98 60 -111 101 -23 69 14
141 85 166 31 11 103 0 129 -19z m402 5 c-14 -20 -14 -24 2 -41 16 -18 15 -19
-33 -17 -28 1 -71 1 -97 1 l-48 -1 0 -55 0 -54 78 -3 77 -3 -21 -21 -21 -21
21 -14 c19 -13 14 -14 -54 -19 l-75 -5 0 -60 0 -60 87 -3 87 -3 -6 -29 c-4
-21 -2 -30 8 -30 9 0 10 -3 3 -10 -7 -7 -59 -10 -135 -8 l-124 3 -3 238 -2
237 135 0 136 0 -15 -22z m-1127 -5 c10 -17 12 -17 25 0 7 9 16 17 20 17 4 0
6 -88 4 -196 l-3 -196 -37 -33 c-43 -40 -74 -50 -123 -41 -66 13 -122 86 -113
148 3 21 4 21 21 4 17 -18 19 -18 37 -1 19 18 20 17 20 -8 0 -32 32 -67 60
-67 11 0 29 9 40 20 18 18 20 33 20 195 0 169 5 198 29 158z"/>
<path d="M1506 888 c-12 -17 -16 -50 -16 -140 0 -105 2 -120 20 -138 24 -24
48 -25 78 -4 21 14 22 22 22 143 0 111 -2 130 -18 144 -26 24 -68 21 -86 -5z"/>
</g>
</svg>
